<?xml version="1.0" encoding="UTF-8" standalone="no"?>
<svg
   width="100"
   height="100"
   version="1.1"
   viewBox="0 0 100 100"
   id="svg2"
   sodipodi:docname="watermark_colored.svg"
   inkscape:version="1.3 (0e150ed6c4, 2023-07-21)"
   xmlns:inkscape="http://www.inkscape.org/namespaces/inkscape"
   xmlns:sodipodi="http://sodipodi.sourceforge.net/DTD/sodipodi-0.dtd"
   xmlns:xlink="http://www.w3.org/1999/xlink"
   xmlns="http://www.w3.org/2000/svg"
   xmlns:svg="http://www.w3.org/2000/svg">
  <defs
     id="defs2">
    <linearGradient
       id="linearGradient6"
       inkscape:collect="always">
      <stop
         style="stop-color:#84c0f0;stop-opacity:1;"
         offset="0"
         id="stop6" />
      <stop
         style="stop-color:#f14fe1;stop-opacity:1;"
         offset="0.48832369"
         id="stop8" />
      <stop
         style="stop-color:#f8d17b;stop-opacity:1;"
         offset="1"
         id="stop7" />
    </linearGradient>
    <linearGradient
       inkscape:collect="always"
       xlink:href="#linearGradient6"
       id="linearGradient7"
       x1="7.3524013"
       y1="94.642036"
       x2="95.132347"
       y2="3.5685894"
       gradientUnits="userSpaceOnUse" />
  </defs>
  <sodipodi:namedview
     id="namedview2"
     pagecolor="#505050"
     bordercolor="#eeeeee"
     borderopacity="1"
     inkscape:showpageshadow="0"
     inkscape:pageopacity="0"
     inkscape:pagecheckerboard="0"
     inkscape:deskcolor="#505050"
     inkscape:zoom="0.50843239"
     inkscape:cx="349.1123"
     inkscape:cy="227.16885"
     inkscape:window-width="3440"
     inkscape:window-height="1369"
     inkscape:window-x="-8"
     inkscape:window-y="1072"
     inkscape:window-maximized="1"
     inkscape:current-layer="svg2" />
  <rect
     style="fill:url(#linearGradient7);fill-opacity:1;stroke:none;stroke-width:29.2564;stroke-linecap:round;stroke-linejoin:round;stroke-opacity:0.99637"
     id="rect2"
     width="100"
     height="100"
     x="0"
     y="0"
     ry="19.122932" />
  <g
     id="g2"
     inkscape:label="watermark"
     transform="matrix(1.8184107,0,0,1.8184107,3.6489607,3.6483698)"
     style="fill:#ffffff;fill-opacity:1">
    <path
       d="M 25.135,37.972 H 18.9784 V 14.834 h 13.674 v 5.0172 h -7.5175 v 4.4156 h 6.932 v 5.017 h -6.932 v 8.6888 z"
       stroke-width="1.5284"
       id="path1"
       style="fill:#ffffff;fill-opacity:1" />
    <path
       d="m 25.49,0 c -3.0404,0 -6.0815,1.1557 -8.3926,3.4668 l -13.631,13.631 c -4.6222,4.6221 -4.6222,12.163 0,16.785 l 13.631,13.631 c 4.6221,4.6221 12.163,4.6221 16.785,0 l 13.631,-13.631 c 4.6221,-4.6221 4.6221,-12.163 0,-16.785 L 33.8824,3.4668 C 31.5713,1.1557 28.5303,0 25.4898,0 Z m 0,2.9805 c 2.2664,0 4.5337,0.86956 6.2715,2.6074 l 13.631,13.631 c 3.4757,3.4757 3.4757,9.0673 0,12.543 l -13.631,13.631 c -3.4757,3.4757 -9.0673,3.4757 -12.543,0 L 5.5875,31.7619 c -3.4757,-3.4757 -3.4757,-9.0673 0,-12.543 L 19.2185,5.5879 C 20.9563,3.85 23.2236,2.9805 25.49,2.9805 Z"
       id="path2"
       style="fill:#ffffff;fill-opacity:1" />
  </g>
</svg>
