<svg width="50.98" height="50.98" version="1.1" viewBox="0 0 50.98 50.98" xmlns="http://www.w3.org/2000/svg">
 <path d="m25.135 37.972h-6.1566v-23.138h13.674v5.0172h-7.5175v4.4156h6.932v5.017h-6.932v8.6888z" stroke-width="1.5284"/>
 <path d="m25.49 0c-3.0404 0-6.0815 1.1557-8.3926 3.4668l-13.631 13.631c-4.6222 4.6221-4.6222 12.163 0 16.785l13.631 13.631c4.6221 4.6221 12.163 4.6221 16.785 0l13.631-13.631c4.6221-4.6221 4.6221-12.163 0-16.785l-13.631-13.631c-2.3111-2.3111-5.3521-3.4668-8.3926-3.4668zm0 2.9805c2.2664 0 4.5337 0.86956 6.2715 2.6074l13.631 13.631c3.4757 3.4757 3.4757 9.0673 0 12.543l-13.631 13.631c-3.4757 3.4757-9.0673 3.4757-12.543 0l-13.631-13.631c-3.4757-3.4757-3.4757-9.0673 0-12.543l13.631-13.631c1.7378-1.7379 4.0051-2.6074 6.2715-2.6074z"/>
</svg>
