<svg width="245.02mm" height="38.91mm" version="1.1" viewBox="0 0 245.02 38.91" xmlns="http://www.w3.org/2000/svg">
	<g transform="translate(-59.979 -76.135)">
		<g fill="#ff4534" stroke-linecap="round" stroke-linejoin="round" stroke-width="2.6458" style="text-orientation:upright" aria-label="FREEZLEX">
			<path d="m61.303 76.135a1.323 1.323 0 0 0-1.3242 1.3242v36.264a1.323 1.323 0 0 0 1.3242 1.3223h9.6484a1.323 1.323 0 0 0 1.3223-1.3223v-12.295h9.543a1.323 1.323 0 0 0 1.3223-1.3223v-7.8633a1.323 1.323 0 0 0-1.3223-1.3242h-9.543v-4.2734h10.459a1.323 1.323 0 0 0 1.3242-1.3242v-7.8613a1.323 1.323 0 0 0-1.3242-1.3242zm1.3223 2.6465h18.785v5.2168h-10.459a1.323 1.323 0 0 0-1.3223 1.3223v6.9219a1.323 1.323 0 0 0 1.3223 1.3223h9.541v5.2168h-9.541a1.323 1.323 0 0 0-1.3223 1.3242v12.295h-7.0039z" color="#000000" style="-inkscape-stroke:none"/>
			<path d="m89.215 76.135a1.323 1.323 0 0 0-1.3223 1.3242v36.264a1.323 1.323 0 0 0 1.3223 1.3223h9.7988a1.323 1.323 0 0 0 1.3223-1.3223v-11.873h0.39844l7.3066 12.539a1.323 1.323 0 0 0 1.1426 0.65625h11.111a1.323 1.323 0 0 0 1.1016-2.0586l-9.8828-14.775c0.85973-0.58293 1.754-1.1391 2.4414-1.8516 1.0367-1.0737 1.845-2.3032 2.4043-3.6641 0.56794-1.382 0.84374-2.9011 0.84375-4.5215-1e-5 -2.5697-0.61575-4.842-1.8984-6.6816-1.2648-1.8374-3.1607-3.1928-5.5371-4.0586-2.3862-0.88577-5.2706-1.2988-8.6699-1.2988zm1.3242 2.6465h10.559c3.1822 0 5.7705 0.39801 7.75 1.1328a1.323 1.323 0 0 0 8e-3 2e-3c1.9832 0.72115 3.357 1.7451 4.2734 3.0781a1.323 1.323 0 0 0 6e-3 0.0078c0.93151 1.3347 1.4238 3.0138 1.4238 5.1719 0 1.3231-0.22223 2.4833-0.64648 3.5156-0.43291 1.0534-1.0459 1.9895-1.8613 2.834-0.81073 0.84021-1.7937 1.589-2.9668 2.2441a1.323 1.323 0 0 0-0.45507 1.8906l9.1914 13.742h-7.877l-7.3066-12.541a1.323 1.323 0 0 0-1.1426-0.65625h-2.4805a1.323 1.323 0 0 0-1.3223 1.3242v11.873h-7.1523zm8.4746 4.7695a1.323 1.323 0 0 0-1.3223 1.3242v8.2852a1.323 1.323 0 0 0 1.3223 1.3223h1.8359c1.6986 0 3.222-0.38152 4.4473-1.2266 1.396-0.96275 2.0098-2.6832 2.0098-4.6348 0-1.4722-0.57655-2.8636-1.666-3.7715-1.1652-0.97095-2.7591-1.2988-4.6934-1.2988zm1.3223 2.6465h0.61133c1.6045 0 2.5757 0.33358 2.998 0.68555 0.49803 0.41502 0.71485 0.86232 0.71485 1.7383 0 1.4549-0.34495 2.0969-0.86719 2.457-0.69292 0.47788-1.6324 0.75781-2.9434 0.75781h-0.51367z" color="#000000" style="-inkscape-stroke:none"/>
			<path d="m124.12 76.135a1.323 1.323 0 0 0-1.3242 1.3242v36.264a1.323 1.323 0 0 0 1.3242 1.3223h21.529a1.323 1.323 0 0 0 1.3223-1.3223v-7.9863a1.323 1.323 0 0 0-1.3223-1.3242h-10.41v-4.1992h9.543a1.323 1.323 0 0 0 1.3223-1.3242v-7.8633a1.323 1.323 0 0 0-1.3223-1.3223h-9.543v-3.0586h10.41a1.323 1.323 0 0 0 1.3223-1.3242v-7.8613a1.323 1.323 0 0 0-1.3223-1.3242zm1.3223 2.6465h18.885v5.2168h-10.41a1.323 1.323 0 0 0-1.3223 1.3223v5.7051a1.323 1.323 0 0 0 1.3223 1.3242h9.541v5.2168h-9.541a1.323 1.323 0 0 0-1.3223 1.3223v6.8477a1.323 1.323 0 0 0 1.3223 1.3223h10.41v5.3418h-18.885z" color="#000000" style="-inkscape-stroke:none"/>
			<path d="m152.53 76.135a1.323 1.323 0 0 0-1.3223 1.3242v36.264a1.323 1.323 0 0 0 1.3223 1.3223h21.531a1.323 1.323 0 0 0 1.3223-1.3223v-7.9863a1.323 1.323 0 0 0-1.3223-1.3242h-10.41v-4.1992h9.541a1.323 1.323 0 0 0 1.3242-1.3242v-7.8633a1.323 1.323 0 0 0-1.3242-1.3223h-9.541v-3.0586h10.41a1.323 1.323 0 0 0 1.3223-1.3242v-7.8613a1.323 1.323 0 0 0-1.3223-1.3242zm1.3242 2.6465h18.885v5.2168h-10.41a1.323 1.323 0 0 0-1.3242 1.3223v5.7051a1.323 1.323 0 0 0 1.3242 1.3242h9.541v5.2168h-9.541a1.323 1.323 0 0 0-1.3242 1.3223v6.8477a1.323 1.323 0 0 0 1.3242 1.3223h10.41v5.3418h-18.885z" color="#000000" style="-inkscape-stroke:none"/>
			<path d="m178.91 76.135a1.323 1.323 0 0 0-1.3242 1.3242v7.9121a1.323 1.323 0 0 0 1.3242 1.3223h12.779l-14.234 20.215a1.323 1.323 0 0 0-0.24024 0.76172v6.0527a1.323 1.323 0 0 0 1.3223 1.3223h28.252a1.323 1.323 0 0 0 1.3242-1.3223v-7.9121a1.323 1.323 0 0 0-1.3242-1.3242h-13.551l14.236-20.24a1.323 1.323 0 0 0 0.24219-0.75977v-6.0273a1.323 1.323 0 0 0-1.3242-1.3242zm1.3223 2.6465h24.838v4.2852l-15.461 21.982a1.323 1.323 0 0 0 1.082 2.084h14.775v5.2676h-25.607v-4.3106l15.461-21.957a1.323 1.323 0 0 0-1.082-2.0859h-14.006z" color="#000000" style="-inkscape-stroke:none"/>
			<path d="m212.5 76.135a1.323 1.323 0 0 0-1.3242 1.3242v36.264a1.323 1.323 0 0 0 1.3242 1.3223h23.762a1.323 1.323 0 0 0 1.3242-1.3223v-7.9121a1.323 1.323 0 0 0-1.3242-1.3242h-12.643v-27.027a1.323 1.323 0 0 0-1.3223-1.3242zm1.3223 2.6465h7.1524v27.029a1.323 1.323 0 0 0 1.3223 1.3223h12.643v5.2676h-21.117z" color="#000000" style="-inkscape-stroke:none"/>
			<path d="m242.6 76.135a1.323 1.323 0 0 0-1.3223 1.3242v36.264a1.323 1.323 0 0 0 1.3223 1.3223h21.531a1.323 1.323 0 0 0 1.3223-1.3223v-7.9863a1.323 1.323 0 0 0-1.3223-1.3242h-10.41v-4.1992h9.541a1.323 1.323 0 0 0 1.3223-1.3242v-7.8633a1.323 1.323 0 0 0-1.3223-1.3223h-9.541v-3.0586h10.41a1.323 1.323 0 0 0 1.3223-1.3242v-7.8613a1.323 1.323 0 0 0-1.3223-1.3242zm1.3223 2.6465h18.885v5.2168h-10.41a1.323 1.323 0 0 0-1.3223 1.3223v5.7051a1.323 1.323 0 0 0 1.3223 1.3242h9.543v5.2168h-9.543a1.323 1.323 0 0 0-1.3223 1.3223v6.8477a1.323 1.323 0 0 0 1.3223 1.3223h10.41v5.3418h-18.885z" color="#000000" style="-inkscape-stroke:none"/>
			<path d="m267.91 76.135a1.323 1.323 0 0 0-1.1152 2.0352l10.854 16.994-11.566 17.838a1.323 1.323 0 0 0 1.1094 2.043h11.088a1.323 1.323 0 0 0 1.125-0.62695l5.875-9.5215 5.9414 9.5254a1.323 1.323 0 0 0 1.123 0.62304h11.336a1.323 1.323 0 0 0 1.0859-2.0762l-11.857-17.072 11.025-17.74a1.323 1.323 0 0 0-1.123-2.0215h-11.188a1.323 1.323 0 0 0-1.1523 0.67578l-5.1699 9.1992-5.3828-9.2188a1.323 1.323 0 0 0-1.1426-0.65625zm2.4141 2.6465h7.6914l6.166 10.557a1.323 1.323 0 0 0 2.2949-0.01953l5.9219-10.537h8.0332l-10.229 16.457a1.323 1.323 0 0 0 0.0371 1.4531l10.91 15.709h-8.0723l-6.6816-10.713a1.323 1.323 0 0 0-2.248 4e-3l-6.6074 10.709h-7.916l10.707-16.512a1.323 1.323 0 0 0 4e-3 -1.4316z" color="#000000" style="-inkscape-stroke:none"/>
		</g>
	</g>
</svg>
