<svg width="178.21" height="1105.1" version="1.1" viewBox="0 0 47.152 292.39" xmlns="http://www.w3.org/2000/svg">
	<defs>
		<filter id="filter4130" x="-.80212" y="-.055149" width="2.6042" height="1.1103" color-interpolation-filters="sRGB">
			<feGaussianBlur stdDeviation="4.3976051"/>
		</filter>
		<filter id="filter4860" x="-.12758" y="-.0087395" width="1.2579" height="1.0183" color-interpolation-filters="sRGB">
			<feGaussianBlur stdDeviation="0.70361647"/>
		</filter>
		<filter id="filter4864" x="-.038104" y="-.0026198" width="1.0762" height="1.0052" color-interpolation-filters="sRGB">
			<feGaussianBlur stdDeviation="0.14436407"/>
		</filter>
		<filter id="filter4872" x="-.046402" y="-.0031515" width="1.0928" height="1.0063" color-interpolation-filters="sRGB">
			<feGaussianBlur stdDeviation="0.036091026"/>
		</filter>
	</defs>
	<g transform="translate(13.877 13.902)" fill="none">
		<path d="m15.474 0.62121c-1.0396 0.17326-2.0887 0.33697-3.1475 0.49098-1.0588 0.15401-2.156 0.29881-3.2918 0.43357-1.1166 0.11551-2.2909 0.21154-3.523 0.28854-1.2128 0.077002-2.4926 0.11557-3.8402 0.11557l0.31724 3.4361c1.4631 0 2.8783-0.02911 4.2451-0.086866v3.1476h-4.0426v3.4656h4.0426v2.6853c0 0.96255-0.17315 1.6749-0.51968 2.1369-0.32727 0.46203-0.96245 0.69342-1.9058 0.69342h-0.80897l0.60654 3.4361h0.25985c1.0203 0 1.8869-0.13459 2.5992-0.40411 0.7123-0.26952 1.2892-0.66461 1.732-1.1844 0.44278-0.51978 0.76074-1.1644 0.95326-1.9345 0.19251-0.7893 0.28856-1.7039 0.28856-2.7434v-2.6853h8.2877v-3.4656h-8.2877v-3.3787c1.1743-0.11551 2.3006-0.25956 3.3787-0.43282 1.0781-0.17326 2.1469-0.36608 3.2057-0.57785zm-12.114 32.833v2.368h-2.7147v3.4361h2.7147v15.362h3.2344v-15.362h6.6705c-0.9433 0.71229-1.9059 1.3671-2.8877 1.9639-0.96256 0.59678-2.0117 1.1548-3.1476 1.6746l1.6746 2.9164c1.6364-0.8663 3.3018-1.8675 4.9959-3.0033 1.6941-1.1551 3.3108-2.4443 4.8509-3.8689l-0.54838-3.1188h-11.608v-2.368zm8.923 12.128-2.6566 2.0795c1.0973 1.1936 2.156 2.445 3.1762 3.7541 1.0396 1.3091 2.0116 2.666 2.9164 4.0714l2.6566-2.0795c-1.9059-2.8299-3.9366-5.4383-6.0927-7.8255zm-10.987 25.816v3.4369h2.1656v3.4074h-2.7434v3.4648h2.7434v2.686c0 1.0396 0.096 1.9534 0.28854 2.7427 0.19251 0.77005 0.51048 1.4154 0.95326 1.9352 0.44278 0.51978 1.0197 0.91412 1.732 1.1836 0.71228 0.26952 1.5788 0.40411 2.5992 0.40411h7.7393l0.77952-3.4361h-8.4607c-0.94331 0-1.5792-0.23063-1.9065-0.69266-0.32726-0.46203-0.49022-1.1743-0.49022-2.1369v-2.686h11.897v-3.4648h-11.897v-3.4074h8.432v-3.4369zm0 34.653v3.4361h2.1656v3.4074h-2.7434v3.4656h2.7434v2.6853c0 1.0396 0.096 1.9542 0.28854 2.7434 0.19251 0.77005 0.51048 1.4147 0.95326 1.9345s1.0197 0.91413 1.732 1.1836c0.71228 0.26951 1.5788 0.40486 2.5992 0.40486h7.7393l0.77952-3.4369h-8.4607c-0.94331 0-1.5792-0.23062-1.9065-0.69266-0.32726-0.46201-0.49022-1.1743-0.49022-2.1369v-2.6853h11.897v-3.4656h-11.897v-3.4074h8.432v-3.4361zm0.53403 34.652v3.4648h9.2402l-6.8722 7.191c-0.59678 0.61603-1.0202 1.2701-1.2705 1.9632-0.25027 0.69303-0.37541 1.3668-0.37541 2.0213 0 1.4438 0.44235 2.5796 1.3279 3.4074 0.88556 0.80855 2.0693 1.2131 3.5517 1.2131h5.9197c1.6364 0 2.7729-0.43291 3.4082-1.2992 0.65455-0.8663 0.98121-2.176 0.98121-3.9278l-3.2337-0.17297c0 0.73153-0.10624 1.2416-0.31799 1.5303-0.21177 0.28876-0.61631 0.43357-1.2131 0.43357h-5.4574c-0.65453 0-1.1166-0.10627-1.3861-0.31799-0.25027-0.23103-0.37541-0.52935-0.37541-0.89511 0-0.19252 0.0386-0.40423 0.11557-0.63525 0.0962-0.25026 0.30798-0.53911 0.63525-0.86639l9.3558-9.9336-0.46152-3.1763zm1.3136 34.205v16.633l-0.98196 0.34672 1.2418 3.1762c2.5989-0.90481 5.1404-1.9736 7.6238-3.2057 2.5026-1.2321 4.8513-2.6952 7.0459-4.3894l-1.9058-2.8008c-1.5016 1.1358-3.0608 2.1661-4.6779 3.0902-1.6171 0.90479-3.3306 1.732-5.1402 2.4828v-15.333zm-1.8476 35.099v3.4369h2.1656v3.4074h-2.7434v3.4648h2.7434v2.686c0 1.0396 0.096 1.9534 0.28854 2.7427 0.19251 0.77004 0.51048 1.4154 0.95326 1.9352s1.0197 0.91413 1.732 1.1836c0.71228 0.26951 1.5788 0.40413 2.5992 0.40413h7.7393l0.77952-3.4361h-8.4607c-0.94331 0-1.5792-0.23062-1.9065-0.69265-0.32726-0.46202-0.49022-1.1743-0.49022-2.1369v-2.686h11.897v-3.4648h-11.897v-3.4074h8.432v-3.4369zm13.081 32.356c-0.51978 1.5593-1.107 3.0807-1.7615 4.5631-0.65455 1.4631-1.3865 2.8972-2.1951 4.3025-1.0011-0.7893-1.9637-1.5111-2.8877-2.1656-0.90481-0.65453-1.7226-1.1842-2.4542-1.5885l-1.7615 2.8877c0.78929 0.44278 1.6362 0.98193 2.541 1.6172 0.90481 0.63529 1.8194 1.3382 2.7434 2.1082-0.98181 1.4053-2.0696 2.7332-3.2631 3.9845-1.1743 1.2513-2.4738 2.4067-3.8984 3.4656l2.2525 2.4254c1.4631-1.0973 2.8011-2.2811 4.0139-3.5517 1.2321-1.2898 2.3678-2.6664 3.4074-4.1295 0.80856 0.73154 1.5594 1.4533 2.2525 2.1656 0.69304 0.69305 1.2897 1.3282 1.7902 1.9058l2.368-2.3099c-0.50052-0.65455-1.1554-1.3763-1.9639-2.1656-0.7893-0.80856-1.6653-1.6271-2.6279-2.4549 0.92406-1.5593 1.752-3.1571 2.4836-4.7935 0.73154-1.6556 1.3856-3.3305 1.9632-5.0246z" filter="url(#filter4130)" stroke="#ff4534" stroke-linecap="round" stroke-linejoin="round" stroke-width="7.9375" style="mix-blend-mode:normal;text-orientation:upright"/>
		<path d="m15.45 0.62121c-1.0395 0.17326-2.0887 0.33697-3.1475 0.49098l-3e-4 4e-5c-1.0587 0.15399-2.1558 0.29879-3.2915 0.43353l-3e-4 3e-5c-1.1165 0.1155-2.2907 0.21152-3.5227 0.28852l-3e-4 2e-5c-1.2127 0.07699-2.4924 0.11555-3.8399 0.11555v2.1e-4c2e-3 0.01761 0.3172 3.4359 0.3172 3.4359h2e-4c1.463-1e-5 2.8781-0.02912 4.2449-0.08687v3.1476h-4.0426v3.4655h4.0426v2.6855c0 0.9625-0.1732 1.6747-0.5197 2.1367l-1e-4 2e-4c-0.3274 0.4619-0.9625 0.6932-1.9056 0.6932h-0.809v2e-4c3e-3 0.0176 0.6065 3.4359 0.6065 3.4359h0.2601c1.0202 0 1.8867-0.1346 2.5989-0.4041l2e-4 -1e-4c0.7122-0.2695 1.2891-0.6646 1.7319-1.1843l2e-4 -2e-4c0.4426-0.5198 0.7605-1.1643 0.953-1.9343l1e-4 -1e-4c0.1924-0.7893 0.2885-1.7038 0.2885-2.7433v-2.6853h8.2877v-3.4655h-8.2877v-3.3787l3e-4 -2e-5c1.1742-0.11551 2.3004-0.25955 3.3784-0.43279l2e-4 -5e-5c1.078-0.17324 2.1468-0.36605 3.2055-0.5778l-1e-4 -2.1e-4c-3e-3 -0.01762-0.5491-3.4359-0.5491-3.4359m-4.0378 10.944m-8.0758 21.889v2.3681h-2.7147v3.4361h2.7147v15.362h3.2345v-15.362h6.6705c-0.629 0.4749-1.2708 0.9115-1.9254 1.3094-0.3143 0.2374-0.6351 0.4556-0.9623 0.6545-0.6418 0.3979-1.3413 0.77-2.0986 1.1165-0.3208 0.1989-0.6705 0.3849-1.049 0.5581l1.1165 1.9445 0.5581 0.9719c1.091-0.5776 2.2014-1.245 3.3308-2.0023 0.5454-0.2887 1.1005-0.6224 1.6651-1.001 1.1295-0.7701 2.2074-1.6296 3.2342-2.5794 0.5646-0.385 1.1034-0.8147 1.6167-1.2895l-0.3656-2.0794-0.1828-1.0394h-11.608v-2.3681h-2.1565zm2.9744 4.0427m5.9486 8.0853-1.7712 1.3864c-0.0135 0.0108-0.8852 0.6933-0.8851 0.6934 0.7315 0.7956 1.4371 1.6298 2.1173 2.5024 0.3658 0.398 0.7188 0.8152 1.059 1.2517 0.6929 0.8726 1.3409 1.7771 1.944 2.7139 0.3465 0.4364 0.6706 0.8886 0.9725 1.3569l1.7707-1.3861 0.8853-0.6935c-1.2705-1.8865-2.6243-3.6253-4.0616-5.2166-0.6353-0.9433-1.3122-1.8128-2.0309-2.6085zm-3.6624 8.6052m-7.3249 17.211v3.4366h2.1656v3.4074h-2.7435v3.4648h2.7435v2.6861c0 0.6931 0.064 1.3024 0.1923 1.8287 0 0.3464 0.032 0.6509 0.0962 0.9139 0.1284 0.5135 0.3404 0.9438 0.6356 1.2904 0.0641 0.2566 0.1701 0.4716 0.3177 0.6449 0.2952 0.3466 0.6799 0.6095 1.1549 0.7893 0.1475 0.1731 0.3398 0.3045 0.5771 0.3943 0.4749 0.1797 1.0527 0.2695 1.7329 0.2695 0.2374 0.0898 0.5262 0.1346 0.8663 0.1346h7.7393l0.5197-2.2909 0.2598-1.1452h-8.4607c-0.6289 0-1.053-0.1537-1.2712-0.4618-0.3143 0-0.5262-0.0769-0.6353-0.2308-0.2182-0.3081-0.3269-0.7831-0.327-1.4249-0.109-0.154-0.1632-0.3913-0.1632-0.712v-2.6861h11.897v-3.4648h-11.897v-3.4074h8.432v-3.4368h-9.2216zm0 11.551m0 23.101v3.436h2.1656v3.408h-2.7435v3.465h2.7435v2.686c0 0.693 0.064 1.303 0.1923 1.829 0 0.346 0.032 0.651 0.0962 0.914 0.1284 0.514 0.3404 0.943 0.6356 1.29 0.0641 0.257 0.1701 0.471 0.3177 0.645 0.2952 0.346 0.6799 0.609 1.1549 0.789 0.1475 0.173 0.3398 0.304 0.5771 0.394 0.4749 0.18 1.0527 0.27 1.7329 0.27 0.2374 0.09 0.5262 0.135 0.8663 0.135h7.7393l0.5197-2.291 0.2598-1.146h-8.4607c-0.6289 0-1.053-0.154-1.2712-0.462-0.3143 0-0.5262-0.076-0.6353-0.23-0.2182-0.309-0.3269-0.783-0.327-1.425-0.109-0.154-0.1632-0.392-0.1632-0.712v-2.686h11.897v-3.465h-11.897v-3.408h8.432v-3.436h-9.2216zm0.178 11.551m0.356 23.101v3.465h9.2402l-6.8722 7.191c-0.3979 0.411-0.6802 0.847-0.8471 1.309-0.1989 0.205-0.34 0.423-0.4234 0.654-0.1668 0.462-0.2503 0.911-0.2503 1.348-0.0834 0.231-0.1251 0.455-0.1251 0.673 0 0.963 0.2949 1.72 0.8853 2.272 0 0.481 0.1475 0.86 0.4426 1.136 0.5905 0.539 1.3797 0.809 2.368 0.809 0.2952 0.269 0.6897 0.404 1.1837 0.404h5.9197c1.091 0 1.8487-0.289 2.2723-0.866 0.5453 0 0.9241-0.145 1.1358-0.433 0.4365-0.578 0.6543-1.451 0.6543-2.619 0.2181-0.289 0.327-0.725 0.327-1.309l-2.156-0.115-1.0777-0.058c0 0.488-0.0708 0.828-0.212 1.02 0 0.244-0.0354 0.414-0.106 0.51-0.1412 0.193-0.411 0.289-0.8088 0.289-0.0707 0.097-0.2055 0.145-0.4043 0.145h-5.4574c-0.4365 0-0.7446-0.071-0.9244-0.212-0.218 0-0.3719-0.036-0.4617-0.106-0.1669-0.154-0.2504-0.353-0.2505-0.597-0.0833-0.077-0.1249-0.177-0.1249-0.298 0-0.129 0.0257-0.27 0.077-0.424 1e-4 -0.064 0.0129-0.135 0.0386-0.212 0.0642-0.166 0.2053-0.359 0.4235-0.577 0.0322-0.084 0.1027-0.18 0.2117-0.289l6.2373-6.623 3.1185-3.311-0.3077-2.117-0.1538-1.059h-9.0483zm0.4379 11.402m0.8757 22.803v16.633l-0.6549 0.231-0.3271 0.115 0.8279 2.118 0.4139 1.059c1.7327-0.604 3.427-1.316 5.0827-2.138 0.8662-0.301 1.7133-0.657 2.5411-1.068 1.6685-0.821 3.2343-1.797 4.6974-2.926 0.8342-0.411 1.617-0.899 2.3485-1.463l-1.2706-1.868-0.6351-0.933c-1.0012 0.757-2.0407 1.444-3.1188 2.06-0.5005 0.379-1.0202 0.722-1.5591 1.03-1.0782 0.603-2.2206 1.155-3.427 1.655-0.539 0.302-1.1101 0.577-1.7132 0.828v-15.333h-2.1374zm-0.6159 11.699m-1.2317 23.4v3.437h2.1656v3.407h-2.7435v3.465h2.7435v2.686c0 0.693 0.064 1.302 0.1923 1.829 0 0.346 0.032 0.651 0.0962 0.914 0.1284 0.513 0.3404 0.943 0.6356 1.29 0.0641 0.256 0.1701 0.472 0.3177 0.645 0.2952 0.346 0.6799 0.609 1.1549 0.789 0.1475 0.173 0.3398 0.305 0.5771 0.394 0.4749 0.18 1.0527 0.27 1.7329 0.27 0.2374 0.09 0.5262 0.135 0.8663 0.135h7.7393l0.5197-2.291 0.2598-1.146h-8.4607c-0.6289 0-1.053-0.153-1.2712-0.461-0.3143 0-0.5262-0.077-0.6353-0.231-0.2182-0.308-0.3269-0.783-0.327-1.425-0.109-0.154-0.1632-0.391-0.1632-0.712v-2.686h11.897v-3.465h-11.897v-3.407h8.432v-3.437h-9.2216zm4.3604 10.785m8.7208 21.571c-0.3466 1.04-0.738 2.054-1.1744 3.042-0.1733 0.52-0.369 1.027-0.5871 1.521-0.4364 0.976-0.9244 1.932-1.4635 2.869-0.2181 0.487-0.4621 0.965-0.7316 1.434-0.6674-0.527-1.3092-1.008-1.9254-1.444-0.3336-0.263-0.6543-0.504-0.9623-0.722-0.6033-0.436-1.1485-0.79-1.6363-1.059-0.3015-0.218-0.574-0.395-0.8178-0.529l-1.1745 1.925-0.587 0.962c0.5263 0.295 1.0909 0.655 1.6942 1.079 0.263 0.147 0.5453 0.327 0.8468 0.538 0.6033 0.424 1.2131 0.893 1.8292 1.406 0.3015 0.212 0.6063 0.446 0.9142 0.703-0.6545 0.937-1.3797 1.822-2.1755 2.656-0.3272 0.469-0.6898 0.911-1.0876 1.328-0.7829 0.834-1.6493 1.605-2.599 2.311-0.3914 0.417-0.8246 0.802-1.2994 1.155l1.5018 1.617 0.7507 0.808c0.9755-0.731 1.8675-1.521 2.6761-2.368 0.4877-0.366 0.9336-0.76 1.3378-1.184 0.8215-0.859 1.5787-1.777 2.2718-2.753 0.4106-0.43 0.7892-0.888 1.1356-1.376 0.5391 0.488 1.0398 0.969 1.5019 1.444 0.2694 0.244 0.5197 0.484 0.7506 0.722 0.4621 0.462 0.8599 0.885 1.1936 1.27 0.231 0.231 0.4298 0.443 0.5966 0.635l1.5788-1.54 0.7892-0.77c-0.3337-0.436-0.7703-0.917-1.3094-1.443-0.1668-0.219-0.385-0.459-0.6545-0.722-0.5263-0.539-1.1103-1.085-1.7521-1.637-0.263-0.269-0.555-0.542-0.8758-0.818 0.6161-1.04 1.1681-2.105 1.6559-3.196 0.308-0.52 0.5839-1.052 0.8277-1.598 0.4878-1.103 0.9238-2.22 1.3089-3.349 0.2438-0.552 0.4618-1.11 0.6543-1.675l-2.0019-0.828" filter="url(#filter4860)" stroke="#ff8377" stroke-width="1.2425"/>
		<path d="m15.45 0.62121c-1.04 0.17326-2.089 0.33697-3.148 0.49098v8e-5c-1.059 0.15398-2.156 0.29876-3.292 0.43349v6e-5c-1.117 0.11548-2.291 0.2115-3.523 0.28849v4e-5c-1.213 0.07697-2.492 0.11553-3.84 0.11553v4.1e-4c3e-3 0.03524 0.317 3.4357 0.317 3.4357h1e-3c1.463-1e-5 2.878-0.02912 4.244-0.08687v3.1476h-4.042v3.4655h4.042v2.6858c0 0.9623-0.173 1.6744-0.519 2.1364l-1e-3 4e-4c-0.327 0.4618-0.962 0.693-1.905 0.693h-0.809v4e-4c6e-3 0.0353 0.607 3.4357 0.607 3.4357h0.26c1.02 0 1.886-0.1346 2.599-0.4041v-1e-4c0.712-0.2695 1.289-0.6646 1.732-1.1843v-5e-4c0.443-0.5197 0.76-1.1642 0.953-1.934v-3e-4c0.192-0.7892 0.288-1.7037 0.288-2.7431v-2.6853h8.288v-3.4655h-8.288v-3.3787l1e-3 -5e-5c1.174-0.1155 2.3-0.25953 3.378-0.43276l1e-3 -9e-5c1.078-0.17324 2.146-0.36603 3.205-0.57776v-4.2e-4c-6e-3 -0.03523-0.549-3.4357-0.549-3.4357m-8.076 21.889m-4.038 10.944v2.3681h-2.715v3.4361h2.715v15.362h3.235v-15.362h6.67c-0.315 0.2375-0.636 0.4559-0.963 0.655-0.629 0.4747-1.27 0.9111-1.925 1.3089-0.321 0.199-0.671 0.3851-1.049 0.5585-0.642 0.3977-1.341 0.7697-2.098 1.1161l0.558 0.9725 1.116 1.9439c0.546-0.2888 1.101-0.6226 1.666-1.0013 1.091-0.5775 2.201-1.2448 3.33-2.002 0.565-0.3851 1.104-0.8149 1.618-1.2899 1.129-0.77 2.207-1.6294 3.233-2.579l-0.183-1.04-0.365-2.0788h-11.608v-2.3681h-1.079zm5.949 8.0853m2.974 4.0427-0.886 0.6934c-0.027 0.0214-1.77 1.3862-1.77 1.3862 0.365 0.3978 0.718 0.8149 1.058 1.2512 0.732 0.7958 1.438 1.6302 2.118 2.5029 0.346 0.4363 0.67 0.8886 0.972 1.357 0.693 0.8727 1.341 1.7773 1.944 2.7141l0.886-0.693 1.771-1.3865c-0.636-0.9433-1.312-1.8127-2.031-2.6084-1.271-1.8866-2.624-3.6255-4.062-5.2169zm-7.325 17.21m-3.662 8.6057v3.4364h2.165v3.4074h-2.743v3.4648h2.743v2.6861c0 0.3467 0.032 0.6514 0.097 0.9147 0 0.6928 0.064 1.3019 0.192 1.8279 0.064 0.2569 0.17 0.4721 0.318 0.6455 0.128 0.5132 0.34 0.9433 0.635 1.2898 0.148 0.1734 0.34 0.305 0.578 0.395 0.295 0.3463 0.68 0.609 1.154 0.7886 0.238 0.0899 0.527 0.1348 0.867 0.1348 0.475 0.1796 1.052 0.2693 1.732 0.2693h7.74l0.26-1.1458 0.519-2.2903h-8.46c-0.315 0-0.527-0.0769-0.636-0.2309-0.629 0-1.053-0.1538-1.271-0.4617-0.109-0.1542-0.164-0.3918-0.164-0.7128-0.218-0.308-0.326-0.7827-0.326-1.4241v-2.6861h11.897v-3.4648h-11.897v-3.4074h8.432v-3.4368h-4.611zm0 23.101m0 11.55v3.436h2.165v3.408h-2.743v3.465h2.743v2.686c0 0.346 0.032 0.651 0.097 0.915 0 0.692 0.064 1.302 0.192 1.828 0.064 0.257 0.17 0.472 0.318 0.645 0.128 0.514 0.34 0.943 0.635 1.29 0.148 0.173 0.34 0.305 0.578 0.395 0.295 0.346 0.68 0.609 1.154 0.788 0.238 0.09 0.527 0.135 0.867 0.135 0.475 0.18 1.052 0.27 1.732 0.27h7.74l0.26-1.146 0.519-2.291h-8.46c-0.315 0-0.527-0.077-0.636-0.231-0.629 0-1.053-0.153-1.271-0.461-0.109-0.155-0.164-0.392-0.164-0.713-0.218-0.308-0.326-0.783-0.326-1.424v-2.686h11.897v-3.465h-11.897v-3.408h8.432v-3.436h-4.611zm0.356 23.102m0.178 11.55v3.465h9.24l-2.291 2.397-4.581 4.794c-0.199 0.205-0.34 0.423-0.424 0.655-0.398 0.41-0.68 0.846-0.847 1.308-0.083 0.231-0.125 0.456-0.125 0.674-0.167 0.462-0.25 0.911-0.25 1.347 0 0.482 0.147 0.861 0.443 1.137 0 0.962 0.295 1.719 0.885 2.271 0.295 0.269 0.69 0.404 1.184 0.405 0.59 0.538 1.38 0.808 2.367 0.808h5.92c0.546 0 0.925-0.144 1.137-0.433 1.09 0 1.848-0.289 2.271-0.866 0.219-0.289 0.328-0.726 0.328-1.31 0.436-0.578 0.654-1.451 0.654-2.618l-1.079-0.058-2.155-0.115c0 0.244-0.036 0.414-0.106 0.51 0 0.488-0.071 0.828-0.212 1.02-0.071 0.097-0.206 0.145-0.405 0.145-0.141 0.192-0.411 0.289-0.808 0.289h-5.458c-0.218 0-0.372-0.036-0.462-0.106-0.436 0-0.744-0.071-0.924-0.212-0.083-0.077-0.125-0.177-0.125-0.299-0.167-0.154-0.25-0.353-0.25-0.596 0-0.065 0.013-0.135 0.038-0.212 0-0.129 0.026-0.27 0.077-0.424 0.033-0.083 0.103-0.18 0.212-0.289 0.065-0.167 0.206-0.359 0.424-0.577l3.119-3.311 6.236-6.623-0.153-1.059-0.308-2.117h-4.525zm0.875 22.803m0.438 11.402v16.633l-0.327 0.115-0.655 0.231 0.414 1.06 0.828 2.117c0.867-0.302 1.714-0.658 2.542-1.069 1.732-0.603 3.426-1.316 5.082-2.137 0.834-0.411 1.617-0.899 2.349-1.463 1.668-0.822 3.234-1.797 4.697-2.926l-0.636-0.934-1.27-1.867c-0.501 0.378-1.02 0.722-1.56 1.03-1 0.757-2.04 1.444-3.118 2.06-0.539 0.302-1.11 0.577-1.714 0.828-1.077 0.603-2.22 1.154-3.426 1.655v-15.333h-1.069zm-1.231 23.399m-0.616 11.7v3.437h2.165v3.407h-2.743v3.465h2.743v2.686c0 0.347 0.032 0.651 0.097 0.915 0 0.692 0.064 1.301 0.192 1.828 0.064 0.256 0.17 0.472 0.318 0.645 0.128 0.513 0.34 0.943 0.635 1.29 0.148 0.173 0.34 0.305 0.578 0.395 0.295 0.346 0.68 0.609 1.154 0.788 0.238 0.09 0.527 0.135 0.867 0.135 0.475 0.18 1.052 0.27 1.732 0.27h7.74l0.26-1.146 0.519-2.291h-8.46c-0.315 0-0.527-0.076-0.636-0.23-0.629-1e-3 -1.053-0.154-1.271-0.462-0.109-0.154-0.164-0.392-0.164-0.713-0.218-0.308-0.326-0.783-0.326-1.424v-2.686h11.897v-3.465h-11.897v-3.407h8.432v-3.437h-4.611zm8.721 21.571m4.36 10.785c-0.173 0.52-0.369 1.027-0.587 1.521-0.347 1.04-0.738 2.054-1.175 3.042-0.218 0.488-0.462 0.966-0.731 1.435-0.437 0.975-0.925 1.931-1.464 2.868-0.333-0.264-0.654-0.504-0.963-0.723-0.667-0.526-1.308-1.007-1.924-1.443-0.302-0.218-0.575-0.395-0.819-0.53-0.603-0.436-1.148-0.789-1.635-1.058l-0.588 0.962-1.174 1.925c0.263 0.148 0.546 0.328 0.847 0.54 0.527 0.295 1.091 0.654 1.694 1.077 0.302 0.212 0.607 0.447 0.915 0.704 0.603 0.423 1.213 0.891 1.829 1.405-0.328 0.468-0.69 0.911-1.088 1.328-0.655 0.937-1.38 1.822-2.176 2.656-0.391 0.417-0.824 0.803-1.299 1.156-0.783 0.834-1.649 1.604-2.599 2.31l0.751 0.808 1.501 1.617c0.488-0.366 0.934-0.76 1.339-1.184 0.975-0.731 1.867-1.521 2.675-2.368 0.411-0.43 0.79-0.889 1.137-1.376 0.821-0.86 1.578-1.778 2.271-2.753 0.269 0.244 0.52 0.485 0.751 0.722 0.539 0.488 1.039 0.969 1.501 1.444 0.231 0.231 0.43 0.443 0.597 0.635 0.462 0.462 0.86 0.885 1.193 1.27l0.79-0.77 1.579-1.54c-0.167-0.218-0.386-0.459-0.655-0.722-0.334-0.436-0.77-0.917-1.309-1.443-0.264-0.27-0.556-0.543-0.877-0.819-0.526-0.539-1.11-1.084-1.751-1.636 0.308-0.52 0.584-1.053 0.828-1.598 0.616-1.04 1.168-2.105 1.655-3.196 0.244-0.552 0.462-1.11 0.655-1.675 0.488-1.103 0.924-2.22 1.308-3.349l-1.001-0.414" filter="url(#filter4872)" stroke="#ff4534" stroke-linejoin="round" stroke-width="1.5071" style="mix-blend-mode:normal"/>
		<path d="m15.474 0.62121c-1.0396 0.17326-2.0887 0.33697-3.1475 0.49098-1.0588 0.15401-2.156 0.29881-3.2918 0.43357-1.1166 0.11551-2.2909 0.21154-3.523 0.28854-1.2128 0.077002-2.4926 0.11557-3.8402 0.11557l0.31724 3.4361c1.4631 0 2.8783-0.02911 4.2451-0.086866v3.1476h-4.0426v3.4656h4.0426v2.6853c0 0.96255-0.17315 1.6749-0.51968 2.1369-0.32727 0.46203-0.96245 0.69342-1.9058 0.69342h-0.80897l0.60654 3.4361h0.25985c1.0203 0 1.8869-0.13459 2.5992-0.40411 0.7123-0.26952 1.2892-0.66461 1.732-1.1844 0.44278-0.51978 0.76074-1.1644 0.95326-1.9345 0.19251-0.7893 0.28856-1.7039 0.28856-2.7434v-2.6853h8.2877v-3.4656h-8.2877v-3.3787c1.1743-0.11551 2.3006-0.25956 3.3787-0.43282 1.0781-0.17326 2.1469-0.36608 3.2057-0.57785zm-12.114 32.833v2.368h-2.7147v3.4361h2.7147v15.362h3.2344v-15.362h6.6705c-0.9433 0.71229-1.9059 1.3671-2.8877 1.9639-0.96256 0.59678-2.0117 1.1548-3.1476 1.6746l1.6746 2.9164c1.6364-0.8663 3.3018-1.8675 4.9959-3.0033 1.6941-1.1551 3.3108-2.4443 4.8509-3.8689l-0.54838-3.1188h-11.608v-2.368zm8.923 12.128-2.6566 2.0795c1.0973 1.1936 2.156 2.445 3.1762 3.7541 1.0396 1.3091 2.0116 2.666 2.9164 4.0714l2.6566-2.0795c-1.9059-2.8299-3.9366-5.4383-6.0927-7.8255zm-10.987 25.816v3.4369h2.1656v3.4074h-2.7434v3.4648h2.7434v2.686c0 1.0396 0.096 1.9534 0.28854 2.7427 0.19251 0.77005 0.51049 1.4154 0.95326 1.9352 0.44278 0.51978 1.0197 0.91412 1.732 1.1836 0.71228 0.26952 1.5788 0.40411 2.5992 0.40411h7.7393l0.77952-3.4361h-8.4607c-0.9433 0-1.5792-0.23063-1.9065-0.69266-0.32726-0.46203-0.49022-1.1743-0.49022-2.1369v-2.686h11.897v-3.4648h-11.897v-3.4074h8.432v-3.4369zm0 34.653v3.4361h2.1656v3.4074h-2.7434v3.4656h2.7434v2.6853c0 1.0396 0.096 1.9542 0.28854 2.7434 0.19251 0.77005 0.51049 1.4147 0.95326 1.9345 0.44278 0.51978 1.0197 0.91413 1.732 1.1836 0.71228 0.26951 1.5788 0.40486 2.5992 0.40486h7.7393l0.77952-3.4369h-8.4607c-0.9433 0-1.5792-0.23062-1.9065-0.69266-0.32726-0.46201-0.49022-1.1743-0.49022-2.1369v-2.6853h11.897v-3.4656h-11.897v-3.4074h8.432v-3.4361zm0.53403 34.652v3.4648h9.2402l-6.8722 7.191c-0.59678 0.61603-1.0202 1.2701-1.2705 1.9632-0.25027 0.69303-0.37541 1.3668-0.37541 2.0213 0 1.4438 0.44236 2.5796 1.3279 3.4074 0.88556 0.80855 2.0693 1.2131 3.5517 1.2131h5.9197c1.6364 0 2.7729-0.43291 3.4082-1.2992 0.65455-0.8663 0.98121-2.176 0.98121-3.9278l-3.2337-0.17297c0 0.73153-0.10624 1.2416-0.31799 1.5303-0.21177 0.28876-0.61631 0.43357-1.2131 0.43357h-5.4574c-0.65453 0-1.1166-0.10627-1.3861-0.31799-0.25027-0.23103-0.3754-0.52935-0.3754-0.89511 0-0.19252 0.0386-0.40423 0.11556-0.63525 0.0963-0.25026 0.30798-0.53911 0.63525-0.86639l9.3558-9.9336-0.46152-3.1763zm1.3136 34.205v16.633l-0.98196 0.34672 1.2418 3.1762c2.5989-0.90481 5.1404-1.9736 7.6238-3.2057 2.5026-1.2321 4.8513-2.6952 7.0459-4.3894l-1.9058-2.8008c-1.5016 1.1358-3.0608 2.1661-4.6779 3.0902-1.6171 0.90479-3.3306 1.732-5.1402 2.4828v-15.333zm-1.8476 35.099v3.4369h2.1656v3.4074h-2.7434v3.4648h2.7434v2.686c0 1.0396 0.096 1.9534 0.28854 2.7427 0.19251 0.77004 0.51049 1.4154 0.95326 1.9352 0.44278 0.51978 1.0197 0.91413 1.732 1.1836 0.71228 0.26951 1.5788 0.40413 2.5992 0.40413h7.7393l0.77952-3.4361h-8.4607c-0.9433 0-1.5792-0.23062-1.9065-0.69265-0.32726-0.46202-0.49022-1.1743-0.49022-2.1369v-2.686h11.897v-3.4648h-11.897v-3.4074h8.432v-3.4369zm13.081 32.356c-0.51978 1.5593-1.107 3.0807-1.7615 4.5631-0.65455 1.4631-1.3865 2.8972-2.1951 4.3025-1.0011-0.7893-1.9637-1.5111-2.8877-2.1656-0.90481-0.65453-1.7226-1.1842-2.4542-1.5885l-1.7615 2.8877c0.78929 0.44278 1.6362 0.98193 2.541 1.6172 0.90481 0.63529 1.8194 1.3382 2.7434 2.1082-0.98181 1.4053-2.0696 2.7332-3.2631 3.9845-1.1743 1.2513-2.4738 2.4067-3.8984 3.4656l2.2525 2.4254c1.4631-1.0973 2.8011-2.2811 4.0139-3.5517 1.2321-1.2898 2.3678-2.6664 3.4074-4.1295 0.80856 0.73154 1.5594 1.4533 2.2525 2.1656 0.69304 0.69305 1.2897 1.3282 1.7902 1.9058l2.368-2.3099c-0.50052-0.65455-1.1554-1.3763-1.9639-2.1656-0.7893-0.80856-1.6653-1.6271-2.6279-2.4549 0.92406-1.5593 1.752-3.1571 2.4836-4.7935 0.73154-1.6556 1.3856-3.3305 1.9632-5.0246z" filter="url(#filter4864)" stroke="#fff" stroke-linecap="round" stroke-linejoin="round" stroke-width=".68686" style="text-orientation:upright"/>
	</g>
</svg>
